<mxfile host="app.diagrams.net" modified="2023-03-23T15:44:46.743Z" agent="5.0 (Windows)" etag="f31TjdhhzyLc-OimiKlB" version="21.0.10" type="github">
  <diagram id="C5RBs43oDa-KdzZeNtuy" name="Page-1">
    <mxGraphModel dx="1816" dy="539" grid="1" gridSize="10" guides="1" tooltips="1" connect="1" arrows="1" fold="1" page="1" pageScale="1" pageWidth="827" pageHeight="1169" math="0" shadow="0">
      <root>
        <mxCell id="WIyWlLk6GJQsqaUBKTNV-0" />
        <mxCell id="WIyWlLk6GJQsqaUBKTNV-1" parent="WIyWlLk6GJQsqaUBKTNV-0" />
        <mxCell id="2yc32Y-KpmT-Ph-40Nxf-2" value="" style="edgeStyle=orthogonalEdgeStyle;rounded=0;orthogonalLoop=1;jettySize=auto;html=1;" edge="1" parent="WIyWlLk6GJQsqaUBKTNV-1" source="2yc32Y-KpmT-Ph-40Nxf-0" target="2yc32Y-KpmT-Ph-40Nxf-1">
          <mxGeometry relative="1" as="geometry" />
        </mxCell>
        <mxCell id="2yc32Y-KpmT-Ph-40Nxf-0" value="START" style="ellipse;whiteSpace=wrap;html=1;" vertex="1" parent="WIyWlLk6GJQsqaUBKTNV-1">
          <mxGeometry x="200" y="120" width="120" height="80" as="geometry" />
        </mxCell>
        <mxCell id="2yc32Y-KpmT-Ph-40Nxf-4" value="" style="edgeStyle=orthogonalEdgeStyle;rounded=0;orthogonalLoop=1;jettySize=auto;html=1;" edge="1" parent="WIyWlLk6GJQsqaUBKTNV-1" source="2yc32Y-KpmT-Ph-40Nxf-1" target="2yc32Y-KpmT-Ph-40Nxf-3">
          <mxGeometry relative="1" as="geometry" />
        </mxCell>
        <mxCell id="2yc32Y-KpmT-Ph-40Nxf-1" value="&lt;div&gt;podaj a&lt;/div&gt;&lt;div&gt;i = 0&lt;/div&gt;&lt;div&gt;zmiana = 1&lt;br&gt;&lt;/div&gt;" style="whiteSpace=wrap;html=1;" vertex="1" parent="WIyWlLk6GJQsqaUBKTNV-1">
          <mxGeometry x="200" y="290" width="120" height="60" as="geometry" />
        </mxCell>
        <mxCell id="2yc32Y-KpmT-Ph-40Nxf-17" value="" style="edgeStyle=orthogonalEdgeStyle;rounded=0;orthogonalLoop=1;jettySize=auto;html=1;" edge="1" parent="WIyWlLk6GJQsqaUBKTNV-1" source="2yc32Y-KpmT-Ph-40Nxf-3" target="2yc32Y-KpmT-Ph-40Nxf-16">
          <mxGeometry relative="1" as="geometry" />
        </mxCell>
        <mxCell id="2yc32Y-KpmT-Ph-40Nxf-18" value="T" style="edgeLabel;html=1;align=center;verticalAlign=middle;resizable=0;points=[];" vertex="1" connectable="0" parent="2yc32Y-KpmT-Ph-40Nxf-17">
          <mxGeometry x="-0.1897" y="-1" relative="1" as="geometry">
            <mxPoint y="-14" as="offset" />
          </mxGeometry>
        </mxCell>
        <mxCell id="2yc32Y-KpmT-Ph-40Nxf-41" value="" style="edgeStyle=orthogonalEdgeStyle;rounded=0;orthogonalLoop=1;jettySize=auto;html=1;" edge="1" parent="WIyWlLk6GJQsqaUBKTNV-1" source="2yc32Y-KpmT-Ph-40Nxf-3" target="2yc32Y-KpmT-Ph-40Nxf-40">
          <mxGeometry relative="1" as="geometry" />
        </mxCell>
        <mxCell id="2yc32Y-KpmT-Ph-40Nxf-3" value="&lt;div&gt;zmiana = 1&lt;br&gt;&lt;/div&gt;" style="rhombus;whiteSpace=wrap;html=1;" vertex="1" parent="WIyWlLk6GJQsqaUBKTNV-1">
          <mxGeometry x="215" y="420" width="90" height="90" as="geometry" />
        </mxCell>
        <mxCell id="2yc32Y-KpmT-Ph-40Nxf-20" value="" style="edgeStyle=orthogonalEdgeStyle;rounded=0;orthogonalLoop=1;jettySize=auto;html=1;entryX=0.5;entryY=0;entryDx=0;entryDy=0;" edge="1" parent="WIyWlLk6GJQsqaUBKTNV-1" source="2yc32Y-KpmT-Ph-40Nxf-16" target="2yc32Y-KpmT-Ph-40Nxf-24">
          <mxGeometry relative="1" as="geometry">
            <mxPoint x="-70" y="530" as="targetPoint" />
            <Array as="points">
              <mxPoint x="-70" y="460" />
            </Array>
          </mxGeometry>
        </mxCell>
        <mxCell id="2yc32Y-KpmT-Ph-40Nxf-16" value="zmiana = 0" style="whiteSpace=wrap;html=1;" vertex="1" parent="WIyWlLk6GJQsqaUBKTNV-1">
          <mxGeometry x="30" y="435" width="120" height="60" as="geometry" />
        </mxCell>
        <mxCell id="2yc32Y-KpmT-Ph-40Nxf-29" value="" style="edgeStyle=orthogonalEdgeStyle;rounded=0;orthogonalLoop=1;jettySize=auto;html=1;" edge="1" parent="WIyWlLk6GJQsqaUBKTNV-1" source="2yc32Y-KpmT-Ph-40Nxf-24" target="2yc32Y-KpmT-Ph-40Nxf-26">
          <mxGeometry relative="1" as="geometry">
            <Array as="points">
              <mxPoint x="30" y="570" />
            </Array>
          </mxGeometry>
        </mxCell>
        <mxCell id="2yc32Y-KpmT-Ph-40Nxf-24" value="i&amp;lt;" style="rhombus;whiteSpace=wrap;html=1;" vertex="1" parent="WIyWlLk6GJQsqaUBKTNV-1">
          <mxGeometry x="-110" y="530" width="80" height="80" as="geometry" />
        </mxCell>
        <mxCell id="2yc32Y-KpmT-Ph-40Nxf-32" value="" style="edgeStyle=orthogonalEdgeStyle;rounded=0;orthogonalLoop=1;jettySize=auto;html=1;" edge="1" parent="WIyWlLk6GJQsqaUBKTNV-1" source="2yc32Y-KpmT-Ph-40Nxf-26" target="2yc32Y-KpmT-Ph-40Nxf-31">
          <mxGeometry relative="1" as="geometry" />
        </mxCell>
        <mxCell id="2yc32Y-KpmT-Ph-40Nxf-43" value="" style="edgeStyle=orthogonalEdgeStyle;rounded=0;orthogonalLoop=1;jettySize=auto;html=1;" edge="1" parent="WIyWlLk6GJQsqaUBKTNV-1" source="2yc32Y-KpmT-Ph-40Nxf-26" target="2yc32Y-KpmT-Ph-40Nxf-34">
          <mxGeometry relative="1" as="geometry" />
        </mxCell>
        <mxCell id="2yc32Y-KpmT-Ph-40Nxf-26" value="a[i]&amp;gt;a[i+1]" style="rhombus;whiteSpace=wrap;html=1;" vertex="1" parent="WIyWlLk6GJQsqaUBKTNV-1">
          <mxGeometry x="-10" y="600" width="80" height="80" as="geometry" />
        </mxCell>
        <mxCell id="2yc32Y-KpmT-Ph-40Nxf-30" value="T" style="text;html=1;align=center;verticalAlign=middle;resizable=0;points=[];autosize=1;strokeColor=none;fillColor=none;" vertex="1" parent="WIyWlLk6GJQsqaUBKTNV-1">
          <mxGeometry x="-25" y="545" width="30" height="30" as="geometry" />
        </mxCell>
        <mxCell id="2yc32Y-KpmT-Ph-40Nxf-35" value="" style="edgeStyle=orthogonalEdgeStyle;rounded=0;orthogonalLoop=1;jettySize=auto;html=1;" edge="1" parent="WIyWlLk6GJQsqaUBKTNV-1" source="2yc32Y-KpmT-Ph-40Nxf-31" target="2yc32Y-KpmT-Ph-40Nxf-34">
          <mxGeometry relative="1" as="geometry">
            <Array as="points">
              <mxPoint x="180" y="750" />
            </Array>
          </mxGeometry>
        </mxCell>
        <mxCell id="2yc32Y-KpmT-Ph-40Nxf-31" value="&lt;div&gt;c=a[i]&lt;/div&gt;&lt;div&gt;a[i]=a[+1]&lt;/div&gt;&lt;div&gt;a[i+1]=c&lt;/div&gt;&lt;div&gt;zmiana=1&lt;br&gt;&lt;/div&gt;" style="rounded=0;whiteSpace=wrap;html=1;" vertex="1" parent="WIyWlLk6GJQsqaUBKTNV-1">
          <mxGeometry x="120" y="610" width="120" height="60" as="geometry" />
        </mxCell>
        <mxCell id="2yc32Y-KpmT-Ph-40Nxf-33" value="T" style="text;html=1;align=center;verticalAlign=middle;resizable=0;points=[];autosize=1;strokeColor=none;fillColor=none;" vertex="1" parent="WIyWlLk6GJQsqaUBKTNV-1">
          <mxGeometry x="75" y="610" width="30" height="30" as="geometry" />
        </mxCell>
        <mxCell id="2yc32Y-KpmT-Ph-40Nxf-34" value="i=i+1" style="rounded=0;whiteSpace=wrap;html=1;" vertex="1" parent="WIyWlLk6GJQsqaUBKTNV-1">
          <mxGeometry x="-30" y="720" width="120" height="60" as="geometry" />
        </mxCell>
        <mxCell id="2yc32Y-KpmT-Ph-40Nxf-38" value="" style="endArrow=classic;html=1;rounded=0;exitX=0;exitY=0.5;exitDx=0;exitDy=0;entryX=0.5;entryY=1;entryDx=0;entryDy=0;" edge="1" parent="WIyWlLk6GJQsqaUBKTNV-1" source="2yc32Y-KpmT-Ph-40Nxf-34" target="2yc32Y-KpmT-Ph-40Nxf-24">
          <mxGeometry width="50" height="50" relative="1" as="geometry">
            <mxPoint x="-110" y="740" as="sourcePoint" />
            <mxPoint x="-60" y="690" as="targetPoint" />
            <Array as="points">
              <mxPoint x="-70" y="750" />
            </Array>
          </mxGeometry>
        </mxCell>
        <mxCell id="2yc32Y-KpmT-Ph-40Nxf-39" value="" style="endArrow=classic;html=1;rounded=0;" edge="1" parent="WIyWlLk6GJQsqaUBKTNV-1">
          <mxGeometry width="50" height="50" relative="1" as="geometry">
            <mxPoint x="-110" y="570" as="sourcePoint" />
            <mxPoint x="260" y="380" as="targetPoint" />
            <Array as="points">
              <mxPoint x="-150" y="570" />
              <mxPoint x="-150" y="380" />
            </Array>
          </mxGeometry>
        </mxCell>
        <mxCell id="2yc32Y-KpmT-Ph-40Nxf-40" value="STOP" style="ellipse;whiteSpace=wrap;html=1;" vertex="1" parent="WIyWlLk6GJQsqaUBKTNV-1">
          <mxGeometry x="390" y="425" width="80" height="80" as="geometry" />
        </mxCell>
        <mxCell id="2yc32Y-KpmT-Ph-40Nxf-42" value="N" style="text;html=1;align=center;verticalAlign=middle;resizable=0;points=[];autosize=1;strokeColor=none;fillColor=none;" vertex="1" parent="WIyWlLk6GJQsqaUBKTNV-1">
          <mxGeometry x="315" y="435" width="30" height="30" as="geometry" />
        </mxCell>
        <mxCell id="2yc32Y-KpmT-Ph-40Nxf-44" value="N" style="text;html=1;align=center;verticalAlign=middle;resizable=0;points=[];autosize=1;strokeColor=none;fillColor=none;" vertex="1" parent="WIyWlLk6GJQsqaUBKTNV-1">
          <mxGeometry x="30" y="680" width="30" height="30" as="geometry" />
        </mxCell>
        <mxCell id="2yc32Y-KpmT-Ph-40Nxf-45" value="N" style="text;html=1;align=center;verticalAlign=middle;resizable=0;points=[];autosize=1;strokeColor=none;fillColor=none;" vertex="1" parent="WIyWlLk6GJQsqaUBKTNV-1">
          <mxGeometry x="-140" y="540" width="30" height="30" as="geometry" />
        </mxCell>
      </root>
    </mxGraphModel>
  </diagram>
</mxfile>
